<svg xmlns="http://www.w3.org/2000/svg" viewBox="0 0 135.46666 135.46666">
  <title>logo</title>
  <path style="fill:#61dafb" d="m 87.669787,24.640507 c -5.41243,0 -12.497827,3.85767 -19.661924,10.54937 -7.164097,-6.65228 -14.249499,-10.47038 -19.661921,-10.47038 v 0.0201 c -1.653251,0 -3.14907,0.3543 -4.448063,1.10221 -5.530516,3.18842 -6.7704,13.12766 -3.916568,25.60571 -12.241947,3.77886 -20.213034,9.82098 -20.213034,16.19782 0,6.396533 8.01075,12.458753 20.292051,16.217963 -2.834151,12.5174 -1.574745,22.47615 3.975455,25.66461 1.279306,0.74791 2.775176,1.10218 4.428425,1.10218 5.412439,0 12.497845,-3.85767 19.66194,-10.54937 7.164082,6.65236 14.249484,10.47031 19.661917,10.47031 1.653226,0 3.149046,-0.3543 4.448036,-1.10221 5.530504,-3.18842 6.770435,-13.12759 3.91663,-25.60572 12.202489,-3.75914 20.173759,-9.82098 20.173759,-16.197763 0,-6.39655 -8.01084,-12.45819 -20.292109,-16.21743 2.834188,-12.51744 1.574814,-22.47624 -3.97539,-25.66467 -1.27416,-0.74489 -2.763348,-1.09881 -4.389204,-1.10169 z m -0.01958,4.38973 v 0.0197 c 0.905277,0 1.633473,0.17728 2.243594,0.5118 2.67681,1.53519 3.83801,7.38047 2.93262,14.89888 -0.21642,1.84996 -0.57101,3.79842 -1.00394,5.78633 -3.85762,-0.9448 -8.069305,-1.67275 -12.497657,-2.14501 -2.657021,-3.64116 -5.412382,-6.94765 -8.187486,-9.84084 6.40609,-5.95409 12.419481,-9.22005 16.51286,-9.23027 z m -39.304225,0.0784 c 4.074086,0 10.11629,3.24726 16.532498,9.17143 -2.755435,2.89321 -5.510446,6.18008 -8.128089,9.8212 -4.448043,0.4723 -8.660177,1.20069 -12.517772,2.16507 -0.452671,-1.96807 -0.78699,-3.87731 -1.023179,-5.7077 -0.92503,-7.5184 0.216254,-13.36415 2.87326,-14.91901 0.590454,-0.35423 1.357927,-0.51133 2.263282,-0.51133 z m 19.642301,12.26159 c 1.830385,1.88956 3.661049,3.99543 5.471744,6.29818 -1.771342,-0.0786 -3.582475,-0.13783 -5.412851,-0.13783 -1.850084,0 -3.680219,0.0397 -5.47124,0.13783 1.771337,-2.30275 3.601637,-4.40862 5.412347,-6.29818 z m 0.05886,10.56909 c 2.971902,0 5.943967,0.13778 8.856845,0.3739 1.633566,2.34212 3.227943,4.84152 4.76311,7.47883 1.495816,2.57836 2.853804,5.19583 4.093739,7.83318 -1.239935,2.63731 -2.597983,5.27461 -4.074114,7.852853 -1.535164,2.65701 -3.109914,5.17647 -4.743485,7.51861 -2.932555,0.25582 -5.904512,0.39352 -8.896095,0.39352 -2.971934,0 -5.943472,-0.13776 -8.856347,-0.37387 -1.633568,-2.34215 -3.227955,-4.84156 -4.763111,-7.47886 -1.495807,-2.578323 -2.853805,-5.196343 -4.093747,-7.833693 1.220257,-2.6373 2.597998,-5.27452 4.074116,-7.85284 1.535157,-2.657 3.109397,-5.17597 4.742963,-7.51803 2.932558,-0.25587 5.904511,-0.3936 8.896119,-0.3936 z m -14.623013,1.02315 c -0.964395,1.51554 -1.929163,3.0703 -2.83453,4.66448 -0.905351,1.57452 -1.75125,3.14939 -2.558192,4.72395 -1.062802,-2.63739 -1.96835,-5.27515 -2.716248,-7.83373 2.578288,-0.61018 5.294501,-1.14135 8.10897,-1.5547 z m 29.207264,0 c 2.794785,0.41335 5.49092,0.92494 8.069137,1.5547 -0.72818,2.53885 -1.633346,5.15661 -2.656789,7.7742 -0.806942,-1.57444 -1.653304,-3.14881 -2.578342,-4.72329 -0.905346,-1.57456 -1.869597,-3.10982 -2.834006,-4.60561 z m 12.320497,2.71628 c 1.94846,0.61008 3.798638,1.27934 5.530499,2.00756 6.96733,2.97198 11.47448,6.86857 11.47448,9.95858 -0.0205,3.09005 -4.52674,7.006793 -11.49406,9.959043 -1.692611,0.72825 -3.542479,1.37792 -5.451559,1.98798 -1.12191,-3.85756 -2.59802,-7.872813 -4.42848,-11.986283 1.81071,-4.09373 3.26694,-8.08899 4.36912,-11.92688 z m -53.888002,0.0202 c 1.121856,3.85761 2.59804,7.8724 4.428428,11.98577 -1.810707,4.09377 -3.267379,8.089453 -4.369551,11.927413 -1.948469,-0.61009 -3.798188,-1.27933 -5.510477,-2.00758 -6.967272,-2.97242 -11.474443,-6.869533 -11.474443,-9.959583 0,-3.09002 4.507171,-7.00634 11.474452,-9.95857 1.692612,-0.72823 3.542498,-1.37786 5.451597,-1.988 z m 26.963612,2.95226 a 8.9944734,8.9944734 0 0 0 -8.99426,8.99408 8.9944734,8.9944734 0 0 0 8.994247,8.994753 8.9944734,8.9944734 0 0 0 8.994755,-8.994753 8.9944734,8.9944734 0 0 0 -8.994755,-8.99429 z m 20.016241,14.26926 c 1.062863,2.637313 1.968359,5.274543 2.716249,7.833143 -2.578294,0.62986 -5.294505,1.16101 -8.108975,1.57432 0.964402,-1.51559 1.928662,-3.07028 2.834008,-4.66453 0.905354,-1.57447 1.751767,-3.1684 2.558718,-4.742933 z m -40.012342,0.0785 c 0.806941,1.574463 1.652793,3.148803 2.577818,4.723373 0.925043,1.57447 1.870129,3.10974 2.834533,4.60557 -2.794787,-0.41331 -5.49143,-0.92489 -8.069719,-1.55466 0.728217,-2.53891 1.633929,-5.15669 2.657368,-7.774283 z M 91.862171,85.00477 c 0.45272,1.98792 0.8067,3.89713 1.02312,5.72743 0.92512,7.51845 -0.21619,13.36358 -2.87318,14.91847 -0.590471,0.35428 -1.357993,0.5118 -2.263286,0.5118 -4.074086,0 -10.116804,-3.24772 -16.532994,-9.17183 2.755411,-2.89319 5.510936,-6.18003 8.128588,-9.82116 4.448044,-0.47241 8.660188,-1.20019 12.517752,-2.16471 z m -47.590334,0.0391 c 3.857584,0.94467 8.06979,1.67268 12.498147,2.145 2.657012,3.64104 5.412371,6.94748 8.187476,9.84069 -6.416194,5.96362 -12.438704,9.23083 -16.53248,9.23083 -0.88568,-0.0201 -1.633588,-0.19681 -2.224034,-0.53139 -2.676699,-1.53524 -3.837999,-7.38047 -2.932657,-14.89889 0.216505,-1.85005 0.570558,-3.79845 1.003548,-5.78624 z m 18.343315,2.57841 c 1.771343,0.0787 3.581961,0.13782 5.412351,0.13782 1.850071,0 3.680718,-0.0398 5.471742,-0.13782 -1.77134,2.3026 -3.601634,4.40862 -5.412345,6.29805 -1.830377,-1.88943 -3.661046,-3.99545 -5.471748,-6.29805 z" />
  <path d="m 67.731776,2.646864 c -35.916717,0 -65.0859428,29.171295 -65.0859428,65.088015 0,35.916721 29.1692258,65.085951 65.0859428,65.085951 17.958622,0 34.230774,-7.29261 46.013194,-19.07481 l -3.57239,-3.57239 c -10.854937,10.85472 -25.85624,17.56327 -42.440804,17.56327 -33.168599,0 -60.0020169,-26.83342 -60.0020169,-60.002021 0,-33.168602 26.8334179,-60.004088 60.0020169,-60.004088 16.5843,0 31.585387,6.708883 42.440284,17.563785 l 3.5724,-3.572391 C 101.96207,9.939802 85.690136,2.646864 67.731776,2.646864 Z" />
</svg>
